<svg width="325" height="290" viewBox="0 0 325 290" fill="none" xmlns="http://www.w3.org/2000/svg">
<g clip-path="url(#clip0_14_97)">
<path d="M103.957 122.456C101.584 128.342 97.7869 132.435 92.5671 134.737C87.2879 136.899 81.5061 136.713 75.2217 134.178C68.8376 131.603 64.518 126.497 62.2629 118.861C59.9081 111.184 60.4004 103.206 63.7398 94.927L67.8437 84.7523L65.3 83.7263C60.4121 81.7548 56.6681 81.4045 54.0679 82.6754C51.4676 83.9462 49.0611 87.3248 46.8483 92.8112C45.9229 95.1055 45.3152 98.0499 45.0253 101.644C44.6758 105.099 44.714 109.173 45.1399 113.868L31.5691 113.44C30.3066 107.944 29.7055 101.67 29.7657 94.6197C29.8661 87.4694 30.721 81.8992 32.3303 77.9091C38.647 62.248 49.3865 57.4753 64.5489 63.5908L93.8761 75.4195C99.4622 77.6726 106.401 78.4415 114.692 77.7263L115.028 96.3027C109.234 96.8653 104.2 96.9807 99.927 96.6488C105.994 105.475 107.337 114.077 103.957 122.456ZM91.23 110.016C92.8394 106.026 92.6251 100.662 90.5872 93.9255L80.5621 89.8821C77.2327 94.6861 74.9041 98.7341 73.5764 102.026C71.0417 108.31 72.5674 112.579 78.1535 114.832C81.0463 115.999 83.7123 116.146 86.1516 115.275C88.4911 114.362 90.184 112.61 91.23 110.016Z" fill="white"/>
<path d="M18.6673 0.070343L94.7918 33.0357L130.618 45.5722L126.212 67.2808L90.5762 50.8201L14.14 22.0782L18.6673 0.070343Z" fill="white"/>
<path d="M176.553 109.066C168.163 119.607 160.903 124.878 154.772 124.878C147.135 124.878 140.843 121.759 135.895 115.52C131.055 109.281 128.635 101.268 128.635 91.4802C128.635 78.0352 132.345 66.6875 139.767 57.4373C147.296 48.1871 156.493 43.562 167.356 43.562L176.391 44.8527V41.7873L174.455 4.03353L196.559 0L194.462 82.9292V97.1272C194.462 103.581 196.075 111.002 199.302 119.392L181.877 126.653C178.758 120.199 176.983 114.337 176.553 109.066ZM146.705 83.0905C146.705 89.9744 147.942 95.3524 150.416 99.2246C152.997 103.097 156.654 105.033 161.387 105.033C166.227 105.033 171.229 103.097 176.391 99.2246V64.375C169.938 63.0843 165.151 62.4389 162.032 62.4389C157.192 62.4389 153.427 64.1599 150.738 67.6018C148.049 71.0437 146.705 76.2066 146.705 83.0905Z" fill="#EBFF00"/>
<path d="M231.078 124.878C224.732 124.878 219.516 122.888 215.428 118.908C211.449 114.821 209.459 109.389 209.459 102.613C209.459 95.7289 212.578 89.813 218.816 84.8653C225.055 79.8099 232.638 77.2822 241.566 77.2822H252.537V74.5395C252.537 69.269 251.461 65.6657 249.31 63.7296C247.159 61.7935 243.125 60.8255 237.209 60.8255C234.735 60.8255 231.778 61.3633 228.336 62.4389C225.001 63.4069 221.237 64.9666 217.042 67.1178L212.363 54.3719C216.988 51.145 222.581 48.2409 229.142 45.6594C235.811 43.078 241.297 41.7873 245.599 41.7873C262.486 41.7873 270.93 49.9619 270.93 66.3111V97.9339C270.93 103.957 272.812 110.68 276.576 118.101L259.474 125.362C256.785 120.199 254.795 115.574 253.505 111.486C247.589 120.414 240.113 124.878 231.078 124.878ZM237.855 108.421C242.157 108.421 247.051 106.216 252.537 101.806V90.9962C246.836 89.7055 242.211 89.0601 238.661 89.0601C231.885 89.0601 228.497 92.0718 228.497 98.0952C228.497 101.214 229.357 103.742 231.078 105.678C232.799 107.507 235.058 108.421 237.855 108.421Z" fill="#EBFF00"/>
<path d="M128.312 230.344C128.312 220.879 137.132 213.457 154.772 208.079C150.577 205.928 148.479 203.131 148.479 199.689C148.479 198.291 149.017 196.893 150.093 195.495C151.168 194.096 152.728 192.644 154.772 191.138V189.848C147.027 189.848 140.843 187.696 136.218 183.394C131.7 179.092 129.441 173.337 129.441 166.131C129.441 156.773 133.26 148.652 140.896 141.768C148.533 134.777 157.568 131.281 168.002 131.281C170.691 131.281 174.617 131.819 179.78 132.894C184.942 133.97 189.998 134.508 194.946 134.508H207.369L205.755 148.544L193.655 147.092C194.73 150.212 195.268 153.761 195.268 157.741C195.268 161.721 194.3 165.7 192.364 169.68C190.536 173.552 188.277 176.672 185.588 179.038C183.006 181.404 180.371 183.502 177.682 185.33C175.101 187.051 172.842 188.611 170.906 190.009C169.077 191.3 168.163 192.483 168.163 193.559C168.163 195.602 170.314 197.377 174.617 198.883C186.018 203.508 193.709 207.434 197.688 210.661C201.776 213.887 203.819 217.867 203.819 222.6C203.819 230.559 199.786 237.067 191.719 242.122C183.759 247.285 174.24 249.866 163.161 249.866C152.083 249.866 143.478 248.092 137.347 244.542C131.324 240.993 128.312 236.26 128.312 230.344ZM177.037 162.581C177.037 157.311 175.854 153.438 173.487 150.965C171.121 148.491 167.41 147.254 162.355 147.254C152.567 147.254 147.673 152.094 147.673 161.774C147.673 171.347 152.889 176.134 163.323 176.134C172.465 176.134 177.037 171.616 177.037 162.581ZM182.845 225.02C182.845 223.084 181.823 221.255 179.78 219.534C177.736 217.921 174.079 215.985 168.808 213.726C160.956 215.877 155.525 217.867 152.513 219.696C149.609 221.524 148.157 223.783 148.157 226.472C148.157 229.161 149.609 231.312 152.513 232.926C155.525 234.647 159.666 235.507 164.936 235.507C170.207 235.507 174.509 234.539 177.843 232.603C181.178 230.667 182.845 228.139 182.845 225.02Z" fill="white"/>
<path d="M244.931 197.915C248.05 197.915 251.331 197.108 254.773 195.495C258.215 193.881 260.904 192.268 262.84 190.654L265.744 188.234L273.166 197.269C272.09 199.098 270.423 201.195 268.164 203.562C265.905 205.928 263.593 207.972 261.226 209.693C258.968 211.306 255.902 212.812 252.03 214.21C248.265 215.501 244.339 216.146 240.252 216.146C231.54 216.146 224.441 212.866 218.955 206.304C213.47 199.636 210.727 191.085 210.727 180.651C210.727 167.529 214.545 156.02 222.182 146.124C229.819 136.229 238.746 131.281 248.965 131.281C256.816 131.281 262.894 133.486 267.196 137.896C271.606 142.306 273.811 148.491 273.811 156.45C273.811 161.183 273.004 166.561 271.391 172.584L268.164 175.972L227.829 179.683C229.657 191.838 235.358 197.915 244.931 197.915ZM244.931 147.899C240.198 147.899 236.219 149.835 232.992 153.707C229.765 157.472 227.883 162.312 227.345 168.228L254.773 164.84C255.095 162.366 255.257 160.322 255.257 158.709C255.257 151.502 251.815 147.899 244.931 147.899Z" fill="white"/>
<path d="M309.998 89.4937L307.901 172.423L309.675 210.338L287.894 214.371L289.83 175.166L287.894 93.5272L309.998 89.4937Z" fill="white"/>
<path d="M324.08 262.884C324.08 277.503 312.229 289.354 297.61 289.354C282.991 289.354 271.14 277.503 271.14 262.884C271.14 248.265 282.991 236.414 297.61 236.414C312.229 236.414 324.08 248.265 324.08 262.884Z" fill="#EBFF00"/>
<path d="M168.701 263.53C168.701 278.149 156.85 290 142.231 290C127.612 290 115.761 278.149 115.761 263.53C115.761 248.911 127.612 237.06 142.231 237.06C156.85 237.06 168.701 248.911 168.701 263.53Z" fill="#EBFF00"/>
<path fill-rule="evenodd" clip-rule="evenodd" d="M133.965 236.43L105.379 133.401L89.589 137.782L121.506 252.816H297.269V236.43H133.965Z" fill="#EBFF00"/>
<path fill-rule="evenodd" clip-rule="evenodd" d="M70.64 164.5H0.640015V151.5H70.64V164.5ZM82.64 205H33.14V192H82.64V205ZM94.64 243.5H60.64V230.5H94.64V243.5Z" fill="#EBFF00"/>
</g>
<defs>
<clipPath id="clip0_14_97">
<rect width="323.44" height="290" fill="white" transform="translate(0.639984)"/>
</clipPath>
</defs>
</svg>
